<svg width="239" height="34" viewBox="0 0 239 34" fill="none" xmlns="http://www.w3.org/2000/svg">
<path d="M19.936 20.484L22.492 20.448V21.924C22.204 21.876 21.868 21.852 21.484 21.852C21.1 21.852 20.668 21.876 20.188 21.924C20.188 23.772 19.3 25.644 17.524 27.54C15.748 29.436 13.6 30.972 11.08 32.148C8.584 33.348 6.256 33.948 4.096 33.948C2.968 33.948 2.044 33.66 1.324 33.084C0.628 32.508 0.28 31.752 0.28 30.816C0.28 29.424 1.204 27.972 3.052 26.46C4.9 24.948 7.06 23.7 9.532 22.716C12.004 21.732 14.236 21.156 16.228 20.988C15.988 20.628 15.616 20.316 15.112 20.052C14.608 19.788 13.576 19.38 12.016 18.828C10.456 18.252 9.352 17.628 8.704 16.956C8.056 16.26 7.732 15.288 7.732 14.04C7.732 12.792 8.404 11.364 9.748 9.756C11.092 8.148 12.676 6.804 14.5 5.724C16.348 4.62 17.968 4.068 19.36 4.068C19.984 4.068 20.5 4.296 20.908 4.752C21.316 5.184 21.52 5.724 21.52 6.372C21.52 7.428 20.884 8.76 19.612 10.368C18.34 11.952 16.924 13.164 15.364 14.004L14.5 12.78C15.436 12.3 16.252 11.556 16.948 10.548C17.668 9.516 18.028 8.628 18.028 7.884C18.028 7.14 17.632 6.768 16.84 6.768C15.712 6.768 14.416 7.476 12.952 8.892C11.512 10.284 10.792 11.592 10.792 12.816C10.792 13.656 11.008 14.316 11.44 14.796C11.872 15.276 12.964 15.876 14.716 16.596C16.468 17.292 17.716 17.916 18.46 18.468C19.204 18.996 19.696 19.668 19.936 20.484ZM3.88 29.88C3.88 31.032 4.816 31.608 6.688 31.608C7.72 31.608 9.052 31.224 10.684 30.456C12.34 29.712 13.792 28.656 15.04 27.288C16.312 25.944 16.948 24.564 16.948 23.148C16.948 22.98 16.912 22.728 16.84 22.392C13.552 22.704 10.564 23.628 7.876 25.164C5.212 26.7 3.88 28.272 3.88 29.88ZM39.3743 23.364L40.2023 23.976C39.8663 24.696 39.2423 25.38 38.3303 26.028C37.4423 26.676 36.6263 27 35.8823 27C34.4663 27 33.7583 26.256 33.7583 24.768C33.7583 24.072 33.9383 23.244 34.2983 22.284L32.9663 23.652C31.6703 24.972 30.5423 25.86 29.5823 26.316C28.6463 26.772 27.7223 27 26.8103 27C25.8983 27 25.2023 26.748 24.7223 26.244C24.2663 25.716 24.0383 24.996 24.0383 24.084C24.0383 22.404 24.6863 20.748 25.9823 19.116C27.2783 17.46 28.9343 16.116 30.9503 15.084C32.9663 14.052 34.9823 13.524 36.9983 13.5L37.0703 14.688L35.5583 15.012C33.3743 15.492 31.4423 16.452 29.7623 17.892C28.1063 19.332 27.2783 20.772 27.2783 22.212C27.2783 23.628 27.8543 24.336 29.0063 24.336C30.0863 24.336 31.4183 23.58 33.0023 22.068C34.5863 20.556 35.9063 18.78 36.9623 16.74L38.4743 17.64C36.9863 20.64 36.2423 22.548 36.2423 23.364C36.2423 23.7 36.3503 23.988 36.5663 24.228C36.8063 24.444 37.0343 24.552 37.2503 24.552C37.4903 24.552 37.6463 24.54 37.7183 24.516C37.7903 24.492 37.8623 24.468 37.9343 24.444C38.0063 24.396 38.0903 24.336 38.1863 24.264C38.3063 24.192 38.4023 24.12 38.4743 24.048C38.5703 23.976 38.7143 23.868 38.9063 23.724C39.0983 23.58 39.2543 23.46 39.3743 23.364ZM55.2413 23.04L55.9973 23.652C55.5893 24.66 54.9413 25.512 54.0533 26.208C53.1893 26.904 52.3973 27.252 51.6773 27.252C50.9813 27.252 50.4293 27.012 50.0213 26.532C49.6133 26.028 49.4093 25.38 49.4093 24.588C49.4093 23.796 49.5413 22.776 49.8053 21.528C48.6773 23.304 47.4653 24.696 46.1693 25.704C44.8733 26.712 43.7813 27.216 42.8933 27.216C41.5493 27.216 40.8773 26.256 40.8773 24.336C40.8773 22.704 41.4293 20.616 42.5333 18.072C43.6373 15.528 44.4413 14.052 44.9453 13.644L46.6733 14.4C45.6893 15.984 44.9453 17.544 44.4413 19.08C43.9373 20.616 43.6853 21.648 43.6853 22.176C43.6853 22.68 43.8413 23.088 44.1533 23.4C44.4893 23.712 44.8733 23.868 45.3053 23.868C46.2653 23.868 47.4533 22.992 48.8693 21.24C50.3093 19.464 51.7733 16.824 53.2613 13.32L55.0973 14.148C55.0493 14.34 54.4973 15.732 53.4413 18.324C52.4093 20.916 51.8933 22.476 51.8933 23.004C51.8933 23.508 52.0013 23.892 52.2173 24.156C52.4573 24.42 52.6853 24.552 52.9013 24.552C53.1413 24.552 53.3213 24.54 53.4413 24.516C53.5613 24.492 53.6813 24.444 53.8013 24.372C53.9213 24.3 54.0173 24.24 54.0893 24.192C54.1853 24.144 54.2933 24.06 54.4133 23.94L54.7013 23.688C54.7493 23.616 54.8333 23.508 54.9533 23.364C55.0973 23.196 55.1933 23.088 55.2413 23.04ZM66.7408 14.256C67.3408 14.256 67.8328 14.46 68.2168 14.868C68.6008 15.276 68.7928 15.804 68.7928 16.452C68.7928 17.748 68.0488 19.116 66.5608 20.556L65.6968 19.872C66.0328 19.128 66.2008 18.588 66.2008 18.252C66.2008 17.604 65.8408 17.28 65.1208 17.28C64.4008 17.28 63.7168 17.736 63.0688 18.648C62.4208 19.56 61.6528 20.976 60.7648 22.896C59.9008 24.792 59.2408 26.136 58.7848 26.928L56.7328 26.028C58.0528 23.028 58.8088 21.264 59.0008 20.736C59.6488 18.864 59.9728 16.488 59.9728 13.608L61.9888 13.068C61.9168 14.628 61.8088 15.84 61.6648 16.704C61.5208 17.544 61.1728 18.924 60.6208 20.844C63.0448 16.452 65.0848 14.256 66.7408 14.256ZM84.9017 23.364L85.7297 23.976C85.3937 24.696 84.7697 25.38 83.8577 26.028C82.9697 26.676 82.1537 27 81.4097 27C79.9937 27 79.2857 26.256 79.2857 24.768C79.2857 24.072 79.4657 23.244 79.8257 22.284L78.4937 23.652C77.1977 24.972 76.0697 25.86 75.1097 26.316C74.1737 26.772 73.2497 27 72.3377 27C71.4257 27 70.7297 26.748 70.2497 26.244C69.7937 25.716 69.5657 24.996 69.5657 24.084C69.5657 22.404 70.2137 20.748 71.5097 19.116C72.8057 17.46 74.4617 16.116 76.4777 15.084C78.4937 14.052 80.5097 13.524 82.5257 13.5L82.5977 14.688L81.0857 15.012C78.9017 15.492 76.9697 16.452 75.2897 17.892C73.6337 19.332 72.8057 20.772 72.8057 22.212C72.8057 23.628 73.3817 24.336 74.5337 24.336C75.6137 24.336 76.9457 23.58 78.5297 22.068C80.1137 20.556 81.4337 18.78 82.4897 16.74L84.0017 17.64C82.5137 20.64 81.7697 22.548 81.7697 23.364C81.7697 23.7 81.8777 23.988 82.0937 24.228C82.3337 24.444 82.5617 24.552 82.7777 24.552C83.0177 24.552 83.1737 24.54 83.2457 24.516C83.3177 24.492 83.3897 24.468 83.4617 24.444C83.5337 24.396 83.6177 24.336 83.7137 24.264C83.8337 24.192 83.9297 24.12 84.0017 24.048C84.0977 23.976 84.2417 23.868 84.4337 23.724C84.6257 23.58 84.7817 23.46 84.9017 23.364ZM92.6687 17.1C93.8207 15.924 94.8287 15.12 95.6927 14.688C96.5807 14.232 97.4087 14.004 98.1767 14.004C98.9687 14.004 99.6167 14.28 100.121 14.832C100.649 15.36 100.913 16.056 100.913 16.92C100.913 19.152 99.9767 21.504 98.1047 23.976C96.2327 26.424 94.2167 27.648 92.0567 27.648C91.4087 27.648 90.7967 27.528 90.2207 27.288L91.0847 25.704C91.4687 25.8 91.7687 25.848 91.9847 25.848C93.4487 25.848 94.7807 25.032 95.9807 23.4C97.1807 21.768 97.7807 20.16 97.7807 18.576C97.7807 18.072 97.6127 17.664 97.2767 17.352C96.9647 17.016 96.5567 16.848 96.0527 16.848C94.9487 16.848 93.6527 17.736 92.1647 19.512C90.7007 21.288 89.4167 23.604 88.3127 26.46L86.1167 25.56C86.8367 21.888 88.2767 17.412 90.4367 12.132C92.5967 6.852 94.3967 3.12 95.8367 0.935999L97.6727 1.584C96.0887 4.536 94.3967 8.196 92.5967 12.564C90.8207 16.932 89.7767 19.896 89.4647 21.456C90.4487 19.728 91.5167 18.276 92.6687 17.1ZM115.733 24.372L116.561 25.056C115.553 26.736 114.245 27.576 112.637 27.576C111.245 27.576 110.549 26.892 110.549 25.524C110.549 24.732 110.885 23.472 111.557 21.744C112.253 19.992 112.601 18.84 112.601 18.288C112.601 17.592 112.157 17.244 111.269 17.244C110.381 17.244 109.169 18.204 107.633 20.124C106.121 22.02 104.849 24.228 103.817 26.748L101.693 25.992C102.941 19.728 106.205 11.34 111.485 0.827998L113.249 1.404C110.585 6.732 108.677 10.968 107.525 14.112C106.325 17.376 105.425 20.076 104.825 22.212C106.673 19.164 108.257 17.052 109.577 15.876C110.921 14.7 112.085 14.112 113.069 14.112C114.845 14.112 115.733 14.748 115.733 16.02C115.733 16.812 115.289 18.228 114.401 20.268C113.513 22.308 113.069 23.664 113.069 24.336C113.069 25.008 113.393 25.344 114.041 25.344C114.377 25.344 114.941 25.02 115.733 24.372ZM164.012 5.4L166.28 6.516C164.744 9.012 162.92 11.232 160.808 13.176C158.72 15.12 155.936 17.052 152.456 18.972C153.128 22.452 153.956 25.236 154.94 27.324C155.924 29.436 157.208 30.612 158.792 30.852V32.508C158.6 32.532 158.348 32.544 158.036 32.544C156.428 32.544 154.868 31.428 153.356 29.196C151.868 26.964 150.524 23.664 149.324 19.296C148.292 22.536 146.72 25.104 144.608 27C142.496 28.872 140.3 29.808 138.02 29.808C136.844 29.808 135.872 29.484 135.104 28.836C134.36 28.212 133.988 27.348 133.988 26.244C133.988 25.116 134.492 23.952 135.5 22.752C136.508 21.552 137.888 20.544 139.64 19.728L140.468 21.024C138.308 22.56 137.228 24 137.228 25.344C137.228 25.992 137.444 26.52 137.876 26.928C138.308 27.312 138.872 27.504 139.568 27.504C141.2 27.504 142.604 26.82 143.78 25.452C144.98 24.06 146.048 21.636 146.984 18.18C148.16 13.836 149.36 10.992 150.584 9.648C151.136 9.024 151.94 8.34 152.996 7.596C151.34 7.644 149.648 7.932 147.92 8.46C146.192 8.964 144.68 9.732 143.384 10.764C142.088 11.772 141.44 12.9 141.44 14.148C141.44 15.756 142.172 17.04 143.636 18L142.916 19.116C141.572 18.468 140.516 17.628 139.748 16.596C138.98 15.564 138.596 14.496 138.596 13.392C138.596 11.88 139.424 10.452 141.08 9.108C142.736 7.764 144.764 6.72 147.164 5.976C149.588 5.232 151.964 4.86 154.292 4.86C155.732 4.86 156.452 5.172 156.452 5.796C156.452 6.204 156.032 6.72 155.192 7.344C153.656 8.496 152.468 9.996 151.628 11.844C150.812 13.692 150.14 15.852 149.612 18.324C152.348 17.316 154.964 15.648 157.46 13.32C159.98 10.968 162.164 8.328 164.012 5.4ZM178.839 23.364L179.667 23.976C179.331 24.696 178.707 25.38 177.795 26.028C176.907 26.676 176.091 27 175.347 27C173.931 27 173.223 26.256 173.223 24.768C173.223 24.072 173.403 23.244 173.763 22.284L172.431 23.652C171.135 24.972 170.007 25.86 169.047 26.316C168.111 26.772 167.187 27 166.275 27C165.363 27 164.667 26.748 164.187 26.244C163.731 25.716 163.503 24.996 163.503 24.084C163.503 22.404 164.151 20.748 165.447 19.116C166.743 17.46 168.399 16.116 170.415 15.084C172.431 14.052 174.447 13.524 176.463 13.5L176.535 14.688L175.023 15.012C172.839 15.492 170.907 16.452 169.227 17.892C167.571 19.332 166.743 20.772 166.743 22.212C166.743 23.628 167.319 24.336 168.471 24.336C169.551 24.336 170.883 23.58 172.467 22.068C174.051 20.556 175.371 18.78 176.427 16.74L177.939 17.64C176.451 20.64 175.707 22.548 175.707 23.364C175.707 23.7 175.815 23.988 176.031 24.228C176.271 24.444 176.499 24.552 176.715 24.552C176.955 24.552 177.111 24.54 177.183 24.516C177.255 24.492 177.327 24.468 177.399 24.444C177.471 24.396 177.555 24.336 177.651 24.264C177.771 24.192 177.867 24.12 177.939 24.048C178.035 23.976 178.179 23.868 178.371 23.724C178.563 23.58 178.719 23.46 178.839 23.364ZM192.042 14.112L193.266 15.084C190.074 19.284 187.914 22.788 186.786 25.596C186.402 26.532 185.85 27 185.13 27C184.674 27 184.266 26.76 183.906 26.28C183.57 25.8 183.342 25.368 183.222 24.984C183.126 24.576 182.958 23.736 182.718 22.464C182.478 21.192 182.214 19.872 181.926 18.504C181.638 17.112 181.398 16.08 181.206 15.408C181.038 14.712 180.918 14.256 180.846 14.04C180.798 13.824 180.702 13.644 180.558 13.5C180.414 13.332 180.33 13.224 180.306 13.176L182.646 13.392C183.342 15.096 183.894 16.944 184.302 18.936C184.398 19.344 184.566 20.172 184.806 21.42C185.046 22.644 185.238 23.604 185.382 24.3C186.702 21.756 187.854 19.692 188.838 18.108C189.846 16.5 190.914 15.168 192.042 14.112ZM207.842 24.372L208.67 25.056C207.662 26.736 206.354 27.576 204.746 27.576C203.354 27.576 202.658 26.892 202.658 25.524C202.658 24.732 202.994 23.472 203.666 21.744C204.362 19.992 204.71 18.84 204.71 18.288C204.71 17.592 204.266 17.244 203.378 17.244C202.49 17.244 201.278 18.204 199.742 20.124C198.23 22.02 196.958 24.228 195.926 26.748L193.802 25.992C195.05 19.728 198.314 11.34 203.594 0.827998L205.358 1.404C202.694 6.732 200.786 10.968 199.634 14.112C198.434 17.376 197.534 20.076 196.934 22.212C198.782 19.164 200.366 17.052 201.686 15.876C203.03 14.7 204.194 14.112 205.178 14.112C206.954 14.112 207.842 14.748 207.842 16.02C207.842 16.812 207.398 18.228 206.51 20.268C205.622 22.308 205.178 23.664 205.178 24.336C205.178 25.008 205.502 25.344 206.15 25.344C206.486 25.344 207.05 25.02 207.842 24.372ZM224.964 23.364L225.792 23.976C225.456 24.696 224.832 25.38 223.92 26.028C223.032 26.676 222.216 27 221.472 27C220.056 27 219.348 26.256 219.348 24.768C219.348 24.072 219.528 23.244 219.888 22.284L218.556 23.652C217.26 24.972 216.132 25.86 215.172 26.316C214.236 26.772 213.312 27 212.4 27C211.488 27 210.792 26.748 210.312 26.244C209.856 25.716 209.628 24.996 209.628 24.084C209.628 22.404 210.276 20.748 211.572 19.116C212.868 17.46 214.524 16.116 216.54 15.084C218.556 14.052 220.572 13.524 222.588 13.5L222.66 14.688L221.148 15.012C218.964 15.492 217.032 16.452 215.352 17.892C213.696 19.332 212.868 20.772 212.868 22.212C212.868 23.628 213.444 24.336 214.596 24.336C215.676 24.336 217.008 23.58 218.592 22.068C220.176 20.556 221.496 18.78 222.552 16.74L224.064 17.64C222.576 20.64 221.832 22.548 221.832 23.364C221.832 23.7 221.94 23.988 222.156 24.228C222.396 24.444 222.624 24.552 222.84 24.552C223.08 24.552 223.236 24.54 223.308 24.516C223.38 24.492 223.452 24.468 223.524 24.444C223.596 24.396 223.68 24.336 223.776 24.264C223.896 24.192 223.992 24.12 224.064 24.048C224.16 23.976 224.304 23.868 224.496 23.724C224.688 23.58 224.844 23.46 224.964 23.364ZM236.475 14.256C237.075 14.256 237.567 14.46 237.951 14.868C238.335 15.276 238.527 15.804 238.527 16.452C238.527 17.748 237.783 19.116 236.295 20.556L235.431 19.872C235.767 19.128 235.935 18.588 235.935 18.252C235.935 17.604 235.575 17.28 234.855 17.28C234.135 17.28 233.451 17.736 232.803 18.648C232.155 19.56 231.387 20.976 230.499 22.896C229.635 24.792 228.975 26.136 228.519 26.928L226.467 26.028C227.787 23.028 228.543 21.264 228.735 20.736C229.383 18.864 229.707 16.488 229.707 13.608L231.723 13.068C231.651 14.628 231.543 15.84 231.399 16.704C231.255 17.544 230.907 18.924 230.355 20.844C232.779 16.452 234.819 14.256 236.475 14.256Z" fill="black"/>
</svg>
